<svg xmlns="http://www.w3.org/2000/svg" viewBox="0 0 228 228"><defs><style>.cls-1{fill:#fff;}.cls-2{fill:none;}.cls-3,.cls-4{fill:#1a1a1a;}.cls-4{stroke:#f2f2f2;stroke-miterlimit:10;stroke-width:4px;}</style></defs><g id="Layer_2" data-name="Layer 2"><g id="Layer_2-2" data-name="Layer 2"><circle id="Background" cx="114" cy="114" r="114"/><g id="Numbers"><path class="cls-1" d="M111.22,33.39a6.46,6.46,0,0,1,.74-3.45,2.4,2.4,0,0,1,2.15-1.17q2.69,0,2.68,4.41a6.15,6.15,0,0,1-.74,3.34,2.4,2.4,0,0,1-2.14,1.16,2.23,2.23,0,0,1-2-1.12A6.09,6.09,0,0,1,111.22,33.39Zm1,0c0,2.36.61,3.54,1.84,3.54s1.84-1.2,1.84-3.59-.6-3.74-1.79-3.74S112.17,30.82,112.17,33.35Z"/><path class="cls-1" d="M120.1,192.28a3.13,3.13,0,0,0-2-.71,2.26,2.26,0,0,0-1.46.46,1.53,1.53,0,0,0-.55,1.24c0,1.15.81,1.73,2.43,1.73h.71v.79h-.68c-1.44,0-2.16.54-2.16,1.61s.55,1.5,1.65,1.5a2.75,2.75,0,0,0,1.72-.63v.93a3.73,3.73,0,0,1-2,.49,2.5,2.5,0,0,1-1.69-.56,1.86,1.86,0,0,1-.67-1.49,2.13,2.13,0,0,1,1.73-2.19v0a2.28,2.28,0,0,1-1.48-.65,2,2,0,0,1-.56-1.41,2.29,2.29,0,0,1,.86-1.88,3.27,3.27,0,0,1,2.16-.71,3.59,3.59,0,0,1,1.94.47Z"/><path class="cls-1" d="M113.75,195.07a6.45,6.45,0,0,1-.75,3.45,2.38,2.38,0,0,1-2.14,1.17q-2.69,0-2.69-4.41a6.14,6.14,0,0,1,.75-3.34,2.4,2.4,0,0,1,2.13-1.16,2.23,2.23,0,0,1,2,1.12A6.09,6.09,0,0,1,113.75,195.07Zm-1,0c0-2.36-.62-3.54-1.85-3.54s-1.83,1.2-1.83,3.6.59,3.73,1.79,3.73S112.8,197.64,112.8,195.11Z"/><path class="cls-1" d="M188,111.78v-.93h7.45a3.59,3.59,0,0,1-.58-.88,4.81,4.81,0,0,1-.44-1.11h1a6.08,6.08,0,0,0,.59,1.38,6.92,6.92,0,0,0,.79,1.17v.37Z"/><path class="cls-1" d="M190.59,120a2.59,2.59,0,0,1-2-.82,3.1,3.1,0,0,1-.75-2.19,3.47,3.47,0,0,1,.35-1.78h1a3.29,3.29,0,0,0-.57,1.8,2.12,2.12,0,0,0,.53,1.49,1.85,1.85,0,0,0,1.39.56,1.64,1.64,0,0,0,1.35-.57,2.55,2.55,0,0,0,.48-1.66,11.92,11.92,0,0,0-.09-1.46l4.32.29v4h-.85v-3.12l-2.6-.19c0,.3,0,.58,0,.83a3,3,0,0,1-.69,2.1A2.44,2.44,0,0,1,190.59,120Z"/><path class="cls-1" d="M30.62,115.67h5.7v-1.14h.84v1.14h2.09v.92H37.16v4.06h-.79a30.88,30.88,0,0,0-2.95-2.34,17.6,17.6,0,0,0-2.8-1.64Zm5.7,3.9v-3H32.07a25.76,25.76,0,0,1,3.46,2.35Z"/><path class="cls-1" d="M36.62,108.37a2.61,2.61,0,0,1,2,.82,3.1,3.1,0,0,1,.75,2.19,3.46,3.46,0,0,1-.36,1.78H38a3.29,3.29,0,0,0,.57-1.8,2.08,2.08,0,0,0-.53-1.49,1.85,1.85,0,0,0-1.39-.56,1.67,1.67,0,0,0-1.35.57,2.55,2.55,0,0,0-.48,1.66,12,12,0,0,0,.09,1.46l-4.32-.29v-4h.85v3.12l2.6.19c0-.3,0-.58,0-.83a3,3,0,0,1,.69-2.1A2.45,2.45,0,0,1,36.62,108.37Z"/><path class="cls-1" d="M158.63,43.53a2.62,2.62,0,0,1-1.72,1.35,3.13,3.13,0,0,1-2.27-.44,3.57,3.57,0,0,1-1.37-1.21l.5-.87a3.35,3.35,0,0,0,1.27,1.4,2.13,2.13,0,0,0,1.56.28,1.83,1.83,0,0,0,1.19-.93,1.65,1.65,0,0,0,.18-1.45,2.58,2.58,0,0,0-1.2-1.24,12.34,12.34,0,0,0-1.31-.66l2.41-3.59,3.43,2-.43.74-2.7-1.56-1.46,2.15c.28.13.52.26.74.38a3,3,0,0,1,1.47,1.65A2.42,2.42,0,0,1,158.63,43.53Z"/><path class="cls-1" d="M182.4,70.06l-.46-.8,6.45-3.73a3.41,3.41,0,0,1-.95-.47,5,5,0,0,1-.93-.74l.86-.5a6.45,6.45,0,0,0,1.21.9,5.74,5.74,0,0,0,1.27.61l.19.33Z"/><path class="cls-1" d="M187.46,70.55a6.63,6.63,0,0,1,3.37-1.09,2.39,2.39,0,0,1,2.08,1.28q1.35,2.33-2.48,4.53a6.2,6.2,0,0,1-3.26,1A2.39,2.39,0,0,1,185.1,75a2.19,2.19,0,0,1,0-2.29A6,6,0,0,1,187.46,70.55Zm.52.8c-2,1.18-2.76,2.3-2.15,3.37s2,1,4-.21,2.94-2.38,2.34-3.42S190.16,70.09,188,71.35Z"/><path class="cls-1" d="M190.57,157.14a1.59,1.59,0,0,0,1.28.21,1.63,1.63,0,0,0,1-.83,2.34,2.34,0,0,0,.3-1.07,3.34,3.34,0,0,0-.18-1.23l.88.51a3,3,0,0,1-.37,2.29,2.5,2.5,0,0,1-1.45,1.23,2.3,2.3,0,0,1-1.83-.28,3,3,0,0,1-1.19-1.19,5.36,5.36,0,0,1-.52-2,13.89,13.89,0,0,0-.22-1.71,2.58,2.58,0,0,0-.32-.81,1.73,1.73,0,0,0-.58-.51l-2.09,3.62-.73-.42,2.59-4.48.36.21a3.34,3.34,0,0,1,.95.78,2.87,2.87,0,0,1,.52,1,10.71,10.71,0,0,1,.29,1.87,5.23,5.23,0,0,0,.39,1.76A2.24,2.24,0,0,0,190.57,157.14Z"/><path class="cls-1" d="M187.48,158.14a6.5,6.5,0,0,1,2.62,2.37A2.38,2.38,0,0,1,190,163c-.89,1.55-2.62,1.59-5.17.12a6.14,6.14,0,0,1-2.51-2.31,2.4,2.4,0,0,1,.06-2.43,2.23,2.23,0,0,1,2-1.18A6.13,6.13,0,0,1,187.48,158.14ZM187,159q-3.06-1.77-4-.17c-.62,1.06.12,2.19,2.19,3.38s3.53,1.35,4.13.32S189.23,160.24,187,159Z"/><path class="cls-1" d="M159,189.65a1.56,1.56,0,0,0,1,.82,1.69,1.69,0,0,0,1.27-.22,2.26,2.26,0,0,0,.79-.78,3.23,3.23,0,0,0,.46-1.15l.51.87a3,3,0,0,1-1.47,1.8,2.5,2.5,0,0,1-1.86.34,2.27,2.27,0,0,1-1.45-1.15,3,3,0,0,1-.44-1.63,5.31,5.31,0,0,1,.56-2A13.14,13.14,0,0,0,159,185a2.62,2.62,0,0,0,.13-.85,1.76,1.76,0,0,0-.25-.74l-3.62,2.1-.42-.74,4.48-2.58.21.36a3.34,3.34,0,0,1,.43,1.15,2.8,2.8,0,0,1-.08,1.17,9.57,9.57,0,0,1-.68,1.76,5.27,5.27,0,0,0-.54,1.72A2.22,2.22,0,0,0,159,189.65Z"/><path class="cls-1" d="M150.54,190.28a2.62,2.62,0,0,1-.31-2.17,3.17,3.17,0,0,1,1.52-1.74,3.57,3.57,0,0,1,1.73-.59l.5.88a3.24,3.24,0,0,0-1.84.4,2,2,0,0,0-1,1.21,1.85,1.85,0,0,0,.2,1.49,1.65,1.65,0,0,0,1.17.88,2.52,2.52,0,0,0,1.68-.42,12.19,12.19,0,0,0,1.22-.8l1.9,3.88-3.42,2-.43-.74,2.7-1.56L155,190.64c-.25.18-.48.32-.7.45a3,3,0,0,1-2.17.45A2.44,2.44,0,0,1,150.54,190.28Z"/><path class="cls-1" d="M77.93,189.14a3.12,3.12,0,0,0-1.38-1.61,2.2,2.2,0,0,0-1.49-.33A1.51,1.51,0,0,0,74,188c-.58,1-.16,1.91,1.24,2.72l.62.35-.4.69-.59-.34c-1.24-.72-2.14-.61-2.68.32s-.27,1.57.68,2.12a2.74,2.74,0,0,0,1.8.31l-.46.81a3.7,3.7,0,0,1-1.94-.55,2.46,2.46,0,0,1-1.18-1.34,1.86,1.86,0,0,1,.16-1.62,2.14,2.14,0,0,1,2.6-1h0a2.24,2.24,0,0,1-1-1.31,2,2,0,0,1,.23-1.5,2.3,2.3,0,0,1,1.68-1.2,3.35,3.35,0,0,1,2.23.47,3.61,3.61,0,0,1,1.44,1.37Z"/><path class="cls-1" d="M67.25,184.45A2.64,2.64,0,0,1,69,183.11a3.09,3.09,0,0,1,2.27.44,3.56,3.56,0,0,1,1.37,1.2l-.5.88a3.35,3.35,0,0,0-1.27-1.4,2.08,2.08,0,0,0-1.56-.28,1.84,1.84,0,0,0-1.19.92,1.68,1.68,0,0,0-.18,1.46,2.53,2.53,0,0,0,1.2,1.24,12.28,12.28,0,0,0,1.31.65L68,191.81l-3.43-2,.43-.74,2.7,1.56,1.46-2.16c-.28-.12-.52-.25-.74-.37A3,3,0,0,1,67,186.47,2.43,2.43,0,0,1,67.25,184.45Z"/><path class="cls-1" d="M37,161.15l4.93-2.85-.56-1,.73-.42.57,1,1.8-1,.46.79-1.8,1.05,2,3.51-.68.39a34.55,34.55,0,0,0-3.73-.54,17.7,17.7,0,0,0-3.24,0Zm6.88.53-1.49-2.58-3.68,2.13a24.82,24.82,0,0,1,4.18.3Z"/><path class="cls-1" d="M39.83,157.12a6.51,6.51,0,0,1-3.37,1.08,2.38,2.38,0,0,1-2.09-1.27q-1.34-2.33,2.49-4.54a6.24,6.24,0,0,1,3.26-1,2.4,2.4,0,0,1,2.07,1.27,2.21,2.21,0,0,1,0,2.3A6.06,6.06,0,0,1,39.83,157.12Zm-.52-.8q3.07-1.77,2.14-3.37t-4,.21c-2.16,1.25-2.94,2.38-2.34,3.42S37.13,157.58,39.31,156.32Z"/><path class="cls-1" d="M42,71.79a2.65,2.65,0,0,1,1.35,1.72,3.1,3.1,0,0,1-.45,2.27,3.48,3.48,0,0,1-1.2,1.37l-.88-.5a3.35,3.35,0,0,0,1.4-1.27,2.08,2.08,0,0,0,.28-1.56,1.84,1.84,0,0,0-.92-1.19,1.64,1.64,0,0,0-1.46-.17,2.55,2.55,0,0,0-1.24,1.19A12.28,12.28,0,0,0,38.22,75l-3.59-2.41,2-3.43.73.43-1.56,2.7,2.16,1.46a7.26,7.26,0,0,1,.38-.74A3,3,0,0,1,40,71.5,2.43,2.43,0,0,1,42,71.79Z"/><path class="cls-1" d="M41.37,69.85a6.5,6.5,0,0,1-2.62-2.37A2.37,2.37,0,0,1,38.81,65c.89-1.56,2.62-1.6,5.17-.12a6.14,6.14,0,0,1,2.51,2.31,2.4,2.4,0,0,1-.06,2.43,2.21,2.21,0,0,1-2,1.17A6,6,0,0,1,41.37,69.85ZM41.8,69c2.05,1.18,3.38,1.23,4,.17S45.67,67,43.6,65.79s-3.53-1.35-4.13-.32S39.62,67.74,41.8,69Z"/><path class="cls-1" d="M74.08,40.69a2.6,2.6,0,0,1,.31,2.16,3.15,3.15,0,0,1-1.52,1.75,3.54,3.54,0,0,1-1.73.58l-.51-.87a3.35,3.35,0,0,0,1.85-.4,2.09,2.09,0,0,0,1-1.21,1.84,1.84,0,0,0-.2-1.49,1.62,1.62,0,0,0-1.18-.88,2.49,2.49,0,0,0-1.67.41,10.75,10.75,0,0,0-1.22.81l-1.9-3.88,3.42-2,.43.73L68.48,38l1.13,2.34c.25-.17.48-.32.7-.44a3,3,0,0,1,2.16-.45A2.4,2.4,0,0,1,74.08,40.69Z"/><path class="cls-1" d="M79.8,37.38a2.62,2.62,0,0,1,.31,2.17,3.13,3.13,0,0,1-1.52,1.74,3.54,3.54,0,0,1-1.73.59l-.5-.88a3.24,3.24,0,0,0,1.84-.4,2.08,2.08,0,0,0,1-1.21A1.85,1.85,0,0,0,79,37.9,1.65,1.65,0,0,0,77.85,37a2.53,2.53,0,0,0-1.68.42,13.45,13.45,0,0,0-1.22.8l-1.9-3.88,3.43-2,.42.74-2.7,1.56L75.34,37c.24-.18.48-.32.69-.45a3,3,0,0,1,2.17-.45A2.44,2.44,0,0,1,79.8,37.38Z"/></g><g id="Ticks"><path class="cls-2" d="M185.17,180.77a2,2,0,1,1,2.67-3l12.2,11c1.74-2,3.4-4.05,5-6.16L191.76,173a2,2,0,1,1,2.35-3.24l13.28,9.65c1.52-2.16,3-4.38,4.33-6.65l-14.23-8.22a2,2,0,0,1,2-3.46l14.23,8.22q1.93-3.47,3.61-7.07h0l-15-6.69a2,2,0,1,1,1.62-3.65l15,6.68h0c1-2.43,2-4.91,2.84-7.42h0l-15.63-5.08a2,2,0,0,1,1.24-3.8L223,147.33h0q1.16-3.78,2.06-7.67h0L209,136.24a2,2,0,1,1,.83-3.91l16.07,3.41q.75-3.87,1.23-7.84l-16.33-1.71a2,2,0,1,1,.42-4l16.33,1.71c.22-2.61.36-5.26.4-7.92H203.35a2,2,0,0,1,0-4H228c0-2.66-.18-5.31-.4-7.92l-16.33,1.71H211a2,2,0,0,1-.21-4l16.33-1.71q-.48-4-1.23-7.84l-16.07,3.41a2,2,0,0,1-.83-3.91l16.07-3.42h0q-.9-3.89-2.06-7.67h0l-15.63,5.08a2,2,0,0,1-.62.1,2,2,0,0,1-.62-3.9l15.63-5.08h0c-.87-2.51-1.81-5-2.84-7.42h0l-15,6.68a2,2,0,0,1-.81.18,2,2,0,0,1-.81-3.83l15-6.69h0q-1.68-3.6-3.61-7.07L199.49,67a2,2,0,1,1-2-3.46l14.23-8.22c-1.36-2.27-2.81-4.49-4.33-6.65l-13.28,9.65A2,2,0,1,1,191.76,55L205,45.38c-1.6-2.11-3.26-4.17-5-6.16l-12.2,11a2,2,0,0,1-1.33.52,2,2,0,0,1-1.34-3.49l12.19-11c-1.8-1.93-3.67-3.81-5.61-5.61l-11,12.19a2,2,0,0,1-1.49.67A2,2,0,0,1,178,43a2,2,0,0,1-.15-2.82l11-12.2c-2-1.74-4.05-3.4-6.16-5L173,36.24a2,2,0,0,1-1.62.83,2.07,2.07,0,0,1-1.18-.38,2,2,0,0,1-.44-2.8l9.65-13.28c-2.16-1.52-4.38-3-6.65-4.33l-8.22,14.23a2,2,0,0,1-1.73,1,2,2,0,0,1-1-.27,2,2,0,0,1-.73-2.73l8.22-14.23q-3.47-1.93-7.07-3.61h0l-6.69,15a2,2,0,0,1-1.83,1.19,2.1,2.1,0,0,1-.81-.17,2,2,0,0,1-1-2.64l6.68-15h0c-2.43-1-4.91-2-7.42-2.84h0l-5.08,15.63a2,2,0,0,1-1.9,1.38,2,2,0,0,1-.62-.1,2,2,0,0,1-1.28-2.52L147.33,5h0q-3.78-1.15-7.67-2.06h0L136.24,19a2,2,0,0,1-3.91-.83l3.41-16.07q-3.87-.75-7.84-1.23l-1.71,16.33a2,2,0,0,1-2,1.79H124a2,2,0,0,1-1.78-2.2L123.92.43C121.31.21,118.67.07,116,0V24.65a2,2,0,1,1-4,0V0c-2.67,0-5.31.18-7.92.4l1.71,16.33A2,2,0,0,1,104,19h-.21a2,2,0,0,1-2-1.79L100.1.85q-4,.48-7.84,1.23l3.41,16.07a2,2,0,1,1-3.91.83L88.34,2.91h0Q84.46,3.8,80.67,5h0l5.08,15.63a2,2,0,0,1-1.28,2.52,1.91,1.91,0,0,1-.62.1A2,2,0,0,1,82,21.83L76.87,6.2h0c-2.51.87-5,1.81-7.42,2.84h0l6.68,15a2,2,0,0,1-1,2.64,2.1,2.1,0,0,1-.81.17,2,2,0,0,1-1.83-1.19l-6.69-15h0q-3.6,1.68-7.07,3.61L67,28.51a2,2,0,0,1-.73,2.73,2,2,0,0,1-1,.27,2,2,0,0,1-1.73-1L55.27,16.28c-2.27,1.36-4.49,2.81-6.65,4.33l9.65,13.28a2,2,0,0,1-.44,2.8,2.07,2.07,0,0,1-1.18.38A2,2,0,0,1,55,36.24L45.38,23c-2.11,1.6-4.17,3.26-6.16,5l11,12.2A2,2,0,0,1,50.05,43a2,2,0,0,1-1.33.52,2,2,0,0,1-1.49-.67l-11-12.19c-1.93,1.8-3.81,3.68-5.61,5.61l12.19,11a2,2,0,0,1-1.34,3.49,2,2,0,0,1-1.33-.52L28,39.22c-1.74,2-3.4,4.05-5,6.16L36.24,55a2,2,0,0,1-2.35,3.24L20.61,48.62c-1.52,2.16-3,4.38-4.33,6.65l14.23,8.22a2,2,0,0,1-1,3.73,2,2,0,0,1-1-.27L14.28,58.73q-1.93,3.47-3.61,7.07h0l15,6.69a2,2,0,0,1-.81,3.83,2,2,0,0,1-.81-.18L9,69.46H9c-1,2.43-2,4.91-2.84,7.42h0L21.83,82a2,2,0,0,1-.62,3.9,2,2,0,0,1-.62-.1L5,80.67H5Q3.81,84.45,2.9,88.34h0L19,91.76a2,2,0,1,1-.83,3.91L2.08,92.26Q1.33,96.13.85,100.1l16.33,1.71a2,2,0,0,1-.21,4h-.21L.43,104.08C.21,106.69.07,109.33,0,112H24.65a2,2,0,1,1,0,4H0c0,2.67.18,5.31.4,7.92l16.33-1.71a2,2,0,1,1,.42,4L.85,127.9q.48,4,1.23,7.84l16.07-3.41a2,2,0,0,1,.83,3.91L2.91,139.66h0q.9,3.89,2.06,7.67H5l15.63-5.08a2,2,0,0,1,1.24,3.8L6.2,151.13h0c.86,2.51,1.81,5,2.84,7.42H9l15-6.68a2,2,0,1,1,1.62,3.65l-15,6.69h0q1.68,3.6,3.61,7.07l14.23-8.22a2,2,0,1,1,2,3.46l-14.23,8.22c1.36,2.27,2.81,4.49,4.33,6.65l13.28-9.65A2,2,0,1,1,36.24,173L23,182.62c1.6,2.11,3.26,4.17,5,6.16l12.2-11a2,2,0,1,1,2.67,3l-12.19,11c1.8,1.93,3.68,3.81,5.61,5.61l11-12.19a2,2,0,0,1,3,2.67l-11,12.2c2,1.74,4.05,3.4,6.16,5L55,191.76a2,2,0,1,1,3.24,2.35l-9.65,13.28c2.16,1.52,4.38,3,6.65,4.33l8.22-14.23a2,2,0,1,1,3.46,2l-8.22,14.23q3.47,1.93,7.07,3.61h0l6.69-15a2,2,0,1,1,3.65,1.62l-6.68,15h0c2.43,1,4.91,2,7.42,2.84h0L82,206.17a2,2,0,1,1,3.8,1.24L80.67,223h0q3.78,1.16,7.67,2.06h0L91.76,209a2,2,0,0,1,3.91.83l-3.41,16.07q3.87.75,7.84,1.23l1.71-16.33a2,2,0,1,1,4,.42l-1.71,16.33c2.61.22,5.25.36,7.92.4V203.13a2,2,0,0,1,4,0V228c2.66,0,5.31-.18,7.92-.4l-1.71-16.33a2,2,0,0,1,4-.42l1.71,16.33q4-.48,7.84-1.23l-3.41-16.07a2,2,0,0,1,3.91-.83l3.42,16.07h0q3.89-.9,7.67-2.06h0l-5.08-15.63a2,2,0,0,1,3.8-1.24l5.08,15.63h0c2.51-.87,5-1.81,7.42-2.84h0l-6.68-15a2,2,0,1,1,3.65-1.62l6.69,15h0q3.6-1.68,7.07-3.61l-8.22-14.23a2,2,0,1,1,3.46-2l8.22,14.23c2.27-1.36,4.49-2.81,6.65-4.33l-9.65-13.28a2,2,0,1,1,3.24-2.35L182.62,205c2.11-1.6,4.17-3.26,6.16-5l-11-12.2a2,2,0,0,1,3-2.67l11,12.19c1.94-1.8,3.81-3.68,5.61-5.61Z"/><path class="cls-1" d="M72.49,25.68a2,2,0,0,0,1.83,1.19,2.1,2.1,0,0,0,.81-.17,2,2,0,0,0,1-2.64L69.46,9h0c-1.22.53-2.44,1.07-3.65,1.64h0Z"/><path class="cls-1" d="M65.22,31.51a2,2,0,0,0,1-.27A2,2,0,0,0,67,28.51L58.73,14.28c-1.16.65-2.32,1.31-3.46,2l8.22,14.23A2,2,0,0,0,65.22,31.51Z"/><path class="cls-1" d="M82,21.83a2,2,0,0,0,1.9,1.38,1.91,1.91,0,0,0,.62-.1,2,2,0,0,0,1.28-2.52L80.67,5h0c-1.28.39-2.54.8-3.8,1.23h0Z"/><path class="cls-1" d="M56.65,37.07a2.07,2.07,0,0,0,1.18-.38,2,2,0,0,0,.44-2.8L48.62,20.61c-1.09.76-2.17,1.55-3.24,2.35L55,36.24A2,2,0,0,0,56.65,37.07Z"/><path class="cls-1" d="M48.72,43.5A2,2,0,0,0,50.05,43a2,2,0,0,0,.15-2.82L39.22,28c-1,.87-2,1.77-3,2.68l11,12.19A2,2,0,0,0,48.72,43.5Z"/><path class="cls-1" d="M41.49,50.72a2,2,0,0,0,1.34-3.49l-12.19-11c-.91,1-1.81,2-2.68,3l12.2,11A2,2,0,0,0,41.49,50.72Z"/><path class="cls-1" d="M35.07,58.65A2,2,0,0,0,36.24,55L23,45.38c-.8,1.07-1.59,2.15-2.35,3.24l13.28,9.65A2,2,0,0,0,35.07,58.65Z"/><path class="cls-1" d="M29.5,67.22a2,2,0,0,0,1-3.73L16.28,55.27c-.69,1.14-1.35,2.3-2,3.46L28.51,67A2,2,0,0,0,29.5,67.22Z"/><path class="cls-1" d="M24.06,76.14a2,2,0,0,0,.81.18,2,2,0,0,0,.81-3.83l-15-6.69h0C10.1,67,9.56,68.23,9,69.45H9Z"/><path class="cls-1" d="M20.59,85.75a2,2,0,0,0,.62.1,2,2,0,0,0,.62-3.9L6.2,76.87h0c-.43,1.26-.84,2.52-1.23,3.8H5Z"/><path class="cls-1" d="M18.57,95.72a2,2,0,0,0,.41-4L2.91,88.34h0c-.3,1.3-.57,2.6-.82,3.92l16.07,3.41A2,2,0,0,0,18.57,95.72Z"/><path class="cls-1" d="M17,105.8a2,2,0,0,0,.21-4L.85,100.1c-.16,1.32-.3,2.64-.42,4l16.33,1.71Z"/><path class="cls-1" d="M26.65,114a2,2,0,0,0-2-2H0c0,.67,0,1.33,0,2s0,1.33,0,2H24.65A2,2,0,0,0,26.65,114Z"/><path class="cls-1" d="M19,124a2,2,0,0,0-2.2-1.78L.43,123.92c.12,1.34.26,2.66.42,4l16.33-1.71A2,2,0,0,0,19,124Z"/><path class="cls-1" d="M19,136.24a2,2,0,0,0-.83-3.91L2.08,135.74c.25,1.32.52,2.62.82,3.92h0Z"/><path class="cls-1" d="M21.83,146.05a2,2,0,0,0-1.24-3.8L5,147.33H5c.39,1.28.8,2.54,1.23,3.8h0Z"/><path class="cls-1" d="M25.68,155.51a2,2,0,1,0-1.62-3.65L9,158.54H9c.53,1.22,1.07,2.44,1.64,3.65h0Z"/><path class="cls-1" d="M31.24,161.78a2,2,0,0,0-2.73-.73l-14.23,8.22c.65,1.16,1.31,2.32,2,3.46l14.23-8.22A2,2,0,0,0,31.24,161.78Z"/><path class="cls-1" d="M36.69,170.17a2,2,0,0,0-2.8-.44l-13.28,9.65c.76,1.09,1.55,2.17,2.35,3.24L36.24,173A2,2,0,0,0,36.69,170.17Z"/><path class="cls-1" d="M43,178a2,2,0,0,0-2.82-.15l-12.2,11c.87,1,1.77,2,2.68,3l12.19-11A2,2,0,0,0,43,178Z"/><path class="cls-1" d="M50.05,185a2,2,0,0,0-2.82.15l-11,12.19c1,.91,2,1.81,3,2.68l11-12.2A2,2,0,0,0,50.05,185Z"/><path class="cls-1" d="M57.83,191.31a2,2,0,0,0-2.8.45L45.38,205c1.07.8,2.15,1.59,3.24,2.35l9.65-13.28A2,2,0,0,0,57.83,191.31Z"/><path class="cls-1" d="M66.22,196.76a2,2,0,0,0-2.73.73l-8.22,14.23c1.14.69,2.3,1.35,3.46,2L67,199.49A2,2,0,0,0,66.22,196.76Z"/><path class="cls-1" d="M76.14,203.94a2,2,0,1,0-3.65-1.62l-6.69,15h0c1.21.57,2.42,1.11,3.65,1.64h0Z"/><path class="cls-1" d="M85.75,207.41a2,2,0,1,0-3.8-1.24L76.87,221.8h0c1.26.43,2.52.84,3.8,1.23h0Z"/><path class="cls-1" d="M94.13,207.48A2,2,0,0,0,91.76,209l-3.42,16.07h0c1.3.3,2.6.57,3.92.82l3.41-16.07A2,2,0,0,0,94.13,207.48Z"/><path class="cls-1" d="M104,209a2,2,0,0,0-2.2,1.78l-1.71,16.33c1.32.16,2.64.3,4,.42l1.71-16.33A2,2,0,0,0,104,209Z"/><path class="cls-1" d="M114,201.13a2,2,0,0,0-2,2V228c.66,0,1.33,0,2,0s1.33,0,2,0V203.13A2,2,0,0,0,114,201.13Z"/><path class="cls-1" d="M124,209a2,2,0,0,0-1.78,2.2l1.71,16.33c1.34-.12,2.66-.26,4-.42l-1.71-16.33A2,2,0,0,0,124,209Z"/><path class="cls-1" d="M136.24,209a2,2,0,0,0-3.91.83l3.41,16.07c1.32-.25,2.62-.52,3.92-.82h0Z"/><path class="cls-1" d="M146.05,206.17a2,2,0,0,0-3.8,1.24L147.33,223h0c1.28-.39,2.54-.8,3.8-1.23h0Z"/><path class="cls-1" d="M155.51,202.32a2,2,0,1,0-3.65,1.62l6.68,15h0c1.23-.53,2.44-1.07,3.65-1.64h0Z"/><path class="cls-1" d="M161.78,196.76a2,2,0,0,0-.73,2.73l8.22,14.23c1.16-.65,2.32-1.31,3.46-2l-8.22-14.23A2,2,0,0,0,161.78,196.76Z"/><path class="cls-1" d="M170.17,191.31a2,2,0,0,0-.44,2.8l9.65,13.28c1.09-.76,2.17-1.55,3.24-2.35L173,191.76A2,2,0,0,0,170.17,191.31Z"/><path class="cls-1" d="M178,185a2,2,0,0,0-.15,2.82l11,12.2c1-.87,2-1.77,3-2.68l-11-12.19A2,2,0,0,0,178,185Z"/><path class="cls-1" d="M185,178a2,2,0,0,0,.15,2.82l12.19,11c.91-1,1.81-2,2.68-3l-12.2-11A2,2,0,0,0,185,178Z"/><path class="cls-1" d="M191.31,170.17a2,2,0,0,0,.45,2.8L205,182.62c.8-1.07,1.59-2.15,2.35-3.24l-13.28-9.65A2,2,0,0,0,191.31,170.17Z"/><path class="cls-1" d="M196.76,161.78a2,2,0,0,0,.73,2.73l14.23,8.22c.69-1.14,1.35-2.3,2-3.46l-14.23-8.22A2,2,0,0,0,196.76,161.78Z"/><path class="cls-1" d="M203.94,151.86a2,2,0,1,0-1.62,3.65l15,6.69h0c.57-1.21,1.11-2.43,1.64-3.65h0Z"/><path class="cls-1" d="M207.41,142.25a2,2,0,0,0-1.24,3.8l15.63,5.08h0c.43-1.26.84-2.52,1.23-3.8h0Z"/><path class="cls-1" d="M207.48,133.87a2,2,0,0,0,1.54,2.37l16.07,3.42h0c.3-1.3.57-2.6.82-3.92l-16.07-3.41A2,2,0,0,0,207.48,133.87Z"/><path class="cls-1" d="M209,124a2,2,0,0,0,1.78,2.2l16.33,1.71c.16-1.32.3-2.64.42-4l-16.33-1.71A2,2,0,0,0,209,124Z"/><path class="cls-1" d="M201.35,114a2,2,0,0,0,2,2H228c0-.67,0-1.33,0-2s0-1.33,0-2H203.35A2,2,0,0,0,201.35,114Z"/><path class="cls-1" d="M209,104a2,2,0,0,0,2,1.79h.21l16.33-1.71c-.12-1.34-.26-2.66-.42-4l-16.33,1.71A2,2,0,0,0,209,104Z"/><path class="cls-1" d="M209,91.76a2,2,0,1,0,.83,3.91l16.07-3.41c-.25-1.32-.52-2.62-.82-3.92h0Z"/><path class="cls-1" d="M206.17,82a2,2,0,0,0,.62,3.9,2,2,0,0,0,.62-.1L223,80.67h0c-.39-1.28-.8-2.54-1.23-3.8h0Z"/><path class="cls-1" d="M202.32,72.49a2,2,0,0,0,.81,3.83,2,2,0,0,0,.81-.18l15-6.68h0c-.53-1.22-1.07-2.44-1.64-3.65h0Z"/><path class="cls-1" d="M196.76,66.22a2,2,0,0,0,2.73.73l14.23-8.22c-.65-1.16-1.31-2.32-2-3.46l-14.23,8.22A2,2,0,0,0,196.76,66.22Z"/><path class="cls-1" d="M191.31,57.83a2,2,0,0,0,2.8.44l13.28-9.65c-.76-1.09-1.55-2.17-2.35-3.24L191.76,55A2,2,0,0,0,191.31,57.83Z"/><path class="cls-1" d="M185,50.05a2,2,0,0,0,1.49.67,2,2,0,0,0,1.33-.52l12.2-11c-.87-1-1.77-2-2.68-3l-12.19,11A2,2,0,0,0,185,50.05Z"/><path class="cls-1" d="M178,43a2,2,0,0,0,1.33.52,2,2,0,0,0,1.49-.67l11-12.19c-1-.91-2-1.81-3-2.68l-11,12.2A2,2,0,0,0,178,43Z"/><path class="cls-1" d="M170.17,36.69a2.07,2.07,0,0,0,1.18.38,2,2,0,0,0,1.62-.83L182.62,23c-1.07-.8-2.15-1.59-3.24-2.35l-9.65,13.28A2,2,0,0,0,170.17,36.69Z"/><path class="cls-1" d="M161.78,31.24a2,2,0,0,0,1,.27,2,2,0,0,0,1.73-1l8.22-14.23c-1.14-.69-2.3-1.35-3.46-2l-8.22,14.23A2,2,0,0,0,161.78,31.24Z"/><path class="cls-1" d="M151.86,24.06a2,2,0,0,0,1,2.64,2.1,2.1,0,0,0,.81.17,2,2,0,0,0,1.83-1.19l6.69-15h0C161,10.1,159.77,9.56,158.55,9h0Z"/><path class="cls-1" d="M142.25,20.59a2,2,0,0,0,1.28,2.52,2,2,0,0,0,.62.1,2,2,0,0,0,1.9-1.38L151.13,6.2h0c-1.26-.43-2.52-.84-3.8-1.23h0Z"/><path class="cls-1" d="M133.87,20.52A2,2,0,0,0,136.24,19l3.42-16.07h0c-1.3-.3-2.6-.57-3.92-.82l-3.41,16.07A2,2,0,0,0,133.87,20.52Z"/><path class="cls-1" d="M124,19h.21a2,2,0,0,0,2-1.79L127.9.85c-1.32-.16-2.64-.3-4-.42l-1.71,16.33A2,2,0,0,0,124,19Z"/><path class="cls-1" d="M114,26.65a2,2,0,0,0,2-2V0c-.67,0-1.33,0-2,0s-1.33,0-2,0V24.65A2,2,0,0,0,114,26.65Z"/><path class="cls-1" d="M103.8,19H104a2,2,0,0,0,1.78-2.2L104.08.43c-1.34.12-2.66.26-4,.42l1.71,16.33A2,2,0,0,0,103.8,19Z"/><path class="cls-1" d="M91.76,19a2,2,0,1,0,3.91-.83L92.26,2.08c-1.32.25-2.62.52-3.92.82h0Z"/></g><circle id="Nob" class="cls-3" cx="114" cy="114" r="40.92"/><circle id="Nob_inner" class="cls-4" cx="114" cy="114" r="28.15"/></g></g></svg>